<?xml version="1.0"?>
<svg xmlns="http://www.w3.org/2000/svg" height="512px" viewBox="0 -46 468 467" width="512px" class=""><g><path d="m196.28125 115.5h66.839844c5.523437 0 10-4.476562 10-10s-4.476563-10-10-10h-66.839844c-5.523438 0-10 4.476562-10 10s4.476562 10 10 10zm0 0" data-original="#000000" class="active-path" data-old_color="#000000" fill="#FF7141"/><path d="m323.121094 156.5h-126.839844c-5.523438 0-10 4.476562-10 10s4.476562 10 10 10h126.839844c5.523437 0 10-4.476562 10-10s-4.476563-10-10-10zm0 0" data-original="#000000" class="active-path" data-old_color="#000000" fill="#FF7141"/><path d="m323.121094 217.5h-126.839844c-5.523438 0-10 4.476562-10 10s4.476562 10 10 10h126.839844c5.523437 0 10-4.476562 10-10s-4.476563-10-10-10zm0 0" data-original="#000000" class="active-path" data-old_color="#000000" fill="#FF7141"/><path d="m427.921875 56.5h-15.921875v-15.574219c-.148438-22.230469-18.109375-40.230469-40.339844-40.425781h-331.582031c-22.054687 0-40.078125 18.371094-40.078125 40.425781v236.890625c.0898438 22.003906 18 39.773438 40.007812 39.683594h15.992188v16.574219c0 22.054687 17.726562 40.425781 39.78125 40.425781h332.140625c22.054687 0 40.078125-18.371094 40.078125-40.425781v-237.445313c-.050781-22.121094-17.957031-40.050781-40.078125-40.128906zm-35.921875 221c0 11.046875-8.953125 20-20 20h-332c-11.046875 0-20-8.953125-20-20v-237c0-11.046875 8.953125-20 20-20h332c11.046875 0 20 8.953125 20 20zm56 56.574219c0 11.027343-9.050781 20.425781-20.078125 20.425781h-332.140625c-11.027344 0-19.78125-9.398438-19.78125-20.425781v-16.574219h295.660156c22.058594 0 40.339844-17.628906 40.339844-39.683594v-201.316406h15.921875c11.078125.066406 20.039063 9.046875 20.078125 20.128906zm0 0" data-original="#000000" class="active-path" data-old_color="#000000" fill="#FF7141"/><path d="m148.421875 123.5c5.523437 0 10-4.476562 10-10s-4.476563-10-10-10h-78.84375c-5.523437 0-10 4.476562-10 10s4.476563 10 10 10h22.5625c9.289063.144531 17.683594 5.582031 21.617187 14h-44.179687c-5.523437 0-10 4.476562-10 10s4.476563 10 10 10h44.179687c-3.933593 8.421875-12.328124 13.855469-21.617187 14h-22.5625c-4.066406-.089844-7.769531 2.34375-9.292969 6.117188-1.527344 3.773437-.5625 8.09375 2.425782 10.859374l56.390624 53.238282c4.023438 3.792968 10.363282 3.601562 14.15625-.421875 3.792969-4.027344 3.605469-10.367188-.421874-14.160157l-38.1875-35.980468c19.609374-1.113282 35.796874-15.652344 40.15625-33.652344h13.617187c5.523437 0 10-4.476562 10-10s-4.476563-10-10-10h-13.621094c-1.117187-4.980469-3.117187-9.722656-5.90625-14zm0 0" data-original="#000000" class="active-path" data-old_color="#000000" fill="#FF7141"/></g> </svg>
