<?xml version="1.0" encoding="UTF-8"?>
<!DOCTYPE svg PUBLIC "-//W3C//DTD SVG 1.1//EN" "http://www.w3.org/Graphics/SVG/1.1/DTD/svg11.dtd">
<!-- Creator: CorelDRAW X5 -->
<svg xmlns="http://www.w3.org/2000/svg" xml:space="preserve" width="19.2075mm" height="24.5717mm" style="shape-rendering:geometricPrecision; text-rendering:geometricPrecision; image-rendering:optimizeQuality; fill-rule:evenodd; clip-rule:evenodd"
viewBox="0 0 552 706"
 xmlns:xlink="http://www.w3.org/1999/xlink">
 <defs>
  <style type="text/css">
   <![CDATA[
    .str1 {stroke:#FEFEFE;stroke-width:14.6041}
    .str0 {stroke:#FEFEFE;stroke-width:24.3411}
    .fil0 {fill:none}
   ]]>
  </style>
 </defs>
 <g id="Layer_x0020_1">
  <metadata id="CorelCorpID_0Corel-Layer"/>
  <path class="fil0 str0" d="M239 12c-66,0 -119,53 -119,119 0,66 53,119 119,119 66,0 119,-53 119,-119 0,-66 -53,-119 -119,-119z"/>
  <path class="fil0 str1" d="M413 436c-73,0 -131,59 -131,131 0,73 59,131 131,131 73,0 131,-59 131,-131 0,-73 -59,-131 -131,-131z"/>
  <path class="fil0 str0" d="M185 292l109 0c76,0 141,50 164,119 -14,-4 -29,-6 -45,-6 -90,0 -162,73 -162,162 0,25 6,49 16,70l-255 0 0 -172c0,-95 78,-172 172,-172z"/>
  <line class="fil0 str0" x1="345" y1="568" x2="482" y2= "568" />
  <line class="fil0 str0" x1="413" y1="507" x2="413" y2= "629" />
 </g>
</svg>
