<?xml version="1.0" encoding="UTF-8"?>
<!DOCTYPE svg PUBLIC "-//W3C//DTD SVG 1.1//EN" "http://www.w3.org/Graphics/SVG/1.1/DTD/svg11.dtd">
<!-- Creator: CorelDRAW X5 -->
<svg xmlns="http://www.w3.org/2000/svg" xml:space="preserve" width="19.2075mm" height="24.5717mm" style="shape-rendering:geometricPrecision; text-rendering:geometricPrecision; image-rendering:optimizeQuality; fill-rule:evenodd; clip-rule:evenodd"
viewBox="0 0 263 336"
 xmlns:xlink="http://www.w3.org/1999/xlink">
 <defs>
  <style type="text/css">
   <![CDATA[
    .str1 {stroke:#E63C24;stroke-width:6.94897}
    .str0 {stroke:#E63C24;stroke-width:11.5821}
    .fil0 {fill:none}
   ]]>
  </style>
 </defs>
 <g id="Layer_x0020_1">
  <metadata id="CorelCorpID_0Corel-Layer"/>
  <path class="fil0 str0" d="M114 6c-31,0 -57,25 -57,57 0,31 25,57 57,57 31,0 57,-25 57,-57 0,-31 -25,-57 -57,-57z"/>
  <path class="fil0 str1" d="M197 208c-35,0 -63,28 -63,63 0,35 28,63 63,63 35,0 63,-28 63,-63 0,-35 -28,-63 -63,-63z"/>
  <path class="fil0 str0" d="M88 139l52 0c36,0 67,24 78,57 -7,-2 -14,-3 -21,-3 -43,0 -77,35 -77,77 0,12 3,23 7,33l-121 0 0 -82c0,-45 37,-82 82,-82z"/>
  <line class="fil0 str0" x1="164" y1="270" x2="229" y2= "270" />
  <line class="fil0 str0" x1="197" y1="241" x2="197" y2= "299" />
 </g>
</svg>
