<?xml version="1.0" encoding="utf-8"?>
<!-- Generator: Adobe Illustrator 22.1.0, SVG Export Plug-In . SVG Version: 6.00 Build 0)  -->
<svg version="1.1" id="Capa_1" xmlns="http://www.w3.org/2000/svg" xmlns:xlink="http://www.w3.org/1999/xlink" x="0px" y="0px"
	 viewBox="0 0 512 512" style="enable-background:new 0 0 512 512;" xml:space="preserve">
<style type="text/css">
	.st0{fill:#4B70FF;}
</style>
<g>
	<g>
		<path class="st0" d="M466.6,45.4C425,3.6,357.2,3.6,315.6,45.4l-277,276.9c-2.2,2.2-3.5,5-3.9,7.9l-20.5,152
			c-0.6,4.3,0.9,8.7,3.9,11.7c2.6,2.6,6.2,4.1,9.8,4.1c0.6,0,1.2,0,1.9-0.1l91.6-12.4c7.6-1,13-8,12-15.7c-1-7.6-8-13-15.7-12
			l-73.4,9.9l14.3-106l111.6,111.6c2.6,2.6,6.2,4.1,9.8,4.1s7.2-1.4,9.8-4.1l277-276.9c20.2-20.2,31.4-47,31.4-75.6
			S486.9,65.5,466.6,45.4z M320.9,79.4l46.5,46.5L114.7,378.7l-46.5-46.5L320.9,79.4z M180,443.8l-45.5-45.5l252.8-252.8l45.5,45.5
			L180,443.8z M452.1,171.2L340.8,59.9c14.1-11.7,31.8-18,50.3-18c21.1,0,40.9,8.3,55.9,23.1c15,14.9,23.1,34.8,23.1,55.9
			C470.2,139.5,463.8,157,452.1,171.2z"/>
	</g>
</g>
</svg>
