<?xml version="1.0"?>
<svg xmlns="http://www.w3.org/2000/svg" xmlns:xlink="http://www.w3.org/1999/xlink" version="1.1" id="Capa_1" x="0px" y="0px" viewBox="0 0 60 60" style="enable-background:new 0 0 60 60;" xml:space="preserve" width="512px" height="512px"><g><path d="M32.543,0.998L32.543,0.998c-1.426-1.326-3.659-1.329-5.086,0L0,26.561v1.728v29.418v2.291h60v-2.291V28.288v-1.728  L32.543,0.998z M20.047,43.229L2,56.979V29.016l18.047,13.75C20.028,42.843,20,42.915,20,42.997S20.028,43.152,20.047,43.229z   M22.337,43.997h15.325l18.375,14H3.963L22.337,43.997z M39.65,42.997L58,29.017v27.961L39.65,42.997z M28.82,2.462  c0.662-0.615,1.698-0.615,2.36,0l0-0.001l26.282,24.469c-0.03,0.02-0.065,0.031-0.094,0.053L37.663,41.997H22.337L2.632,26.984  c-0.029-0.022-0.064-0.033-0.094-0.053L28.82,2.462z" data-original="#000000" class="active-path" data-old_color="#000000" fill="#4B70FF"/></g> </svg>
