<svg id="bc0e5946-05e0-439d-9b97-265c61aa49e1" data-name="Layer 1" xmlns="http://www.w3.org/2000/svg" viewBox="0 0 114.2285 104.6288"><defs><style>.a1322b37-7dbd-4ff9-9125-7284b43558bb{fill:#26408a;}.a75e7e1a-f1aa-4050-9b96-4e15d1adbebc{fill:#58595b;}.fdff574c-654c-4c97-8ac7-96ad6fd16de4{fill:none;}.baf546f3-fdb8-4d69-b8b9-5cd885637894{fill:#f1b51c;}.b2fd2536-38c0-4b85-a403-da48e0957cb4{fill:#44ade2;}.a6a71a45-d603-4372-b418-b53355e3f851{fill:#36bba5;}.f17d1aaa-f6eb-431f-8b4d-122da204a8ca{fill:#f15a31;}.adbd706d-b553-4e26-9110-aa5aac584011{fill:#25408e;}.b02ce5bb-3ccd-4962-9332-17a45cd6dff7{fill:#fff;}</style></defs><title>finsta-logo</title><path class="a1322b37-7dbd-4ff9-9125-7284b43558bb" d="M6.3135,94.16a1.4576,1.4576,0,1,1-2.9151,0V79.9609a1.4584,1.4584,0,0,1,1.4576-1.457h7.8413a1.3067,1.3067,0,0,1,0,2.6133H6.3135v4.6494h4.75a1.2818,1.2818,0,0,1,0,2.5635h-4.75Z" transform="translate(-2.8857 -5.9571)"/><path class="a1322b37-7dbd-4ff9-9125-7284b43558bb" d="M26.999,94.16a1.4575,1.4575,0,1,1-2.915,0V79.76a1.4575,1.4575,0,0,1,2.915,0Z" transform="translate(-2.8857 -5.9571)"/><path class="a1322b37-7dbd-4ff9-9125-7284b43558bb" d="M50.3223,79.7354v14.45a1.43,1.43,0,0,1-2.6133.8047l-7.4141-10.706v9.9013a1.4324,1.4324,0,1,1-2.8647,0v-14.45a1.4481,1.4481,0,0,1,1.4321-1.4327,1.3425,1.3425,0,0,1,1.1563.6035l7.4389,10.7813V79.7354a1.4324,1.4324,0,1,1,2.8648,0Z" transform="translate(-2.8857 -5.9571)"/><path class="a1322b37-7dbd-4ff9-9125-7284b43558bb" d="M66.5352,80.7656c-2.086,0-2.8653.98-2.8653,1.9854,0,3.292,9.1729,1.7588,9.1729,8.042,0,3.0654-2.1612,4.9756-6.3076,4.9756a7.5649,7.5649,0,0,1-6.3584-3.0655,1.352,1.352,0,0,1,1.1308-2.0615,1.4739,1.4739,0,0,1,1.1065.5537,5.7621,5.7621,0,0,0,4.1211,1.9092c2.2871,0,3.3925-.7539,3.3925-2.3115,0-3.669-9.1728-1.9854-9.1728-8.042,0-2.4883,1.7842-4.6,5.78-4.6,2.5127,0,4.6992.9306,5.705,2.3632a1.4519,1.4519,0,0,1,.251.8038,1.3468,1.3468,0,0,1-1.3574,1.332,1.6655,1.6655,0,0,1-1.08-.5527A5.1922,5.1922,0,0,0,66.5352,80.7656Z" transform="translate(-2.8857 -5.9571)"/><path class="a1322b37-7dbd-4ff9-9125-7284b43558bb" d="M89.0039,81.0674V94.16a1.4575,1.4575,0,1,1-2.915,0V81.0674H82.2441a1.2818,1.2818,0,1,1,0-2.5635H92.85a1.2818,1.2818,0,0,1,0,2.5635Z" transform="translate(-2.8857 -5.9571)"/><path class="a1322b37-7dbd-4ff9-9125-7284b43558bb" d="M104.4873,91.0186l-1.5332,3.6445a1.4808,1.4808,0,0,1-1.3564.9551,1.4483,1.4483,0,0,1-1.4327-1.4327,1.3992,1.3992,0,0,1,.1006-.5273l5.9307-14.4512a1.4332,1.4332,0,0,1,2.6641,0l5.9306,14.4512a1.38,1.38,0,0,1,.1006.5273,1.4482,1.4482,0,0,1-1.4326,1.4327,1.4809,1.4809,0,0,1-1.3565-.9551l-1.5332-3.6445Zm3.041-7.9415-2.0605,5.2784h4.1211Z" transform="translate(-2.8857 -5.9571)"/><path class="a75e7e1a-f1aa-4050-9b96-4e15d1adbebc" d="M4.1826,108.6133l-.6763,1.6943a.3175.3175,0,0,1-.6206-.0928.3687.3687,0,0,1,.0279-.1386l2.26-5.7149a.3057.3057,0,0,1,.2964-.2129.3263.3263,0,0,1,.3057.2129l2.26,5.7149a.4592.4592,0,0,1,.0279.1386.325.325,0,0,1-.63.1026l-.667-1.7041ZM5.47,105.2041l-1.0927,2.835H6.5723Z" transform="translate(-2.8857 -5.9571)"/><path class="a75e7e1a-f1aa-4050-9b96-4e15d1adbebc" d="M14.72,109.2705v-1.3428H13.1733a.2871.2871,0,0,1,0-.5742h1.8711a.2951.2951,0,0,1,.2871.2871v1.6211a.4566.4566,0,0,1-.1206.3047,2.7288,2.7288,0,0,1-2.2133,1.0195c-1.7969,0-2.89-.9638-2.89-3.2421,0-2.1954,1.0928-3.251,2.89-3.251a2.5419,2.5419,0,0,1,2.0839.9824.3233.3233,0,0,1,.065.1943.2984.2984,0,0,1-.5376.1758,2,2,0,0,0-1.6113-.7783c-1.4263,0-2.2417.8613-2.2417,2.6768,0,1.9267.8154,2.6679,2.2417,2.6679A2.13,2.13,0,0,0,14.72,109.2705Z" transform="translate(-2.8857 -5.9571)"/><path class="a75e7e1a-f1aa-4050-9b96-4e15d1adbebc" d="M18.876,110.2148a.315.315,0,1,1-.63,0v-5.7509a.315.315,0,1,1,.63,0Z" transform="translate(-2.8857 -5.9571)"/><path class="a75e7e1a-f1aa-4050-9b96-4e15d1adbebc" d="M25.1919,109.8633a.2964.2964,0,1,1,0,.5928h-2.853a.3118.3118,0,0,1-.3145-.3145v-5.6777a.3147.3147,0,1,1,.6294,0v5.3994Z" transform="translate(-2.8857 -5.9571)"/><path class="a75e7e1a-f1aa-4050-9b96-4e15d1adbebc" d="M28.4775,110.4561a.3118.3118,0,0,1-.3144-.3145v-5.6045a.3117.3117,0,0,1,.3144-.3144h2.9732a.2871.2871,0,1,1,0,.5742H28.7925v2.2324H30.83a.2871.2871,0,1,1,0,.5742H28.7925v2.2783h2.76a.2872.2872,0,0,1,0,.5743Z" transform="translate(-2.8857 -5.9571)"/><path class="a75e7e1a-f1aa-4050-9b96-4e15d1adbebc" d="M39.1255,110.2148a.3147.3147,0,1,1-.6294,0v-5.6777a.3117.3117,0,0,1,.3144-.3144h2.9732a.2871.2871,0,0,1,0,.5742H39.1255v2.3066h2.0376a.2871.2871,0,1,1,0,.5742H39.1255Z" transform="translate(-2.8857 -5.9571)"/><path class="a75e7e1a-f1aa-4050-9b96-4e15d1adbebc" d="M45.5879,110.2148a.315.315,0,1,1-.63,0v-5.7509a.315.315,0,1,1,.63,0Z" transform="translate(-2.8857 -5.9571)"/><path class="a75e7e1a-f1aa-4050-9b96-4e15d1adbebc" d="M53.0894,104.4541v5.7607a.3179.3179,0,0,1-.5743.1856l-3.26-4.918v4.7422a.3057.3057,0,1,1-.6113,0v-5.77a.308.308,0,0,1,.3056-.3057.3193.3193,0,0,1,.25.13l3.2788,4.9278v-4.752a.3057.3057,0,0,1,.6114,0Z" transform="translate(-2.8857 -5.9571)"/><path class="a75e7e1a-f1aa-4050-9b96-4e15d1adbebc" d="M56.9492,108.6133l-.6758,1.6943a.3228.3228,0,0,1-.3056.2227.3185.3185,0,0,1-.3155-.3155.3694.3694,0,0,1,.0284-.1386l2.26-5.7149a.3042.3042,0,0,1,.2959-.2129.3267.3267,0,0,1,.3057.2129l2.26,5.7149a.4648.4648,0,0,1,.0283.1386.325.325,0,0,1-.63.1026l-.667-1.7041Zm1.2871-3.4092-1.0927,2.835h2.1953Z" transform="translate(-2.8857 -5.9571)"/><path class="a75e7e1a-f1aa-4050-9b96-4e15d1adbebc" d="M67.8379,104.4541v5.7607a.3179.3179,0,0,1-.5742.1856l-3.26-4.918v4.7422a.3057.3057,0,1,1-.6113,0v-5.77a.308.308,0,0,1,.3056-.3057.3177.3177,0,0,1,.25.13l3.2784,4.9278v-4.752a.3057.3057,0,1,1,.6113,0Z" transform="translate(-2.8857 -5.9571)"/><path class="a75e7e1a-f1aa-4050-9b96-4e15d1adbebc" d="M70.5586,107.3438c0-2.1954,1.0928-3.251,2.89-3.251a2.5406,2.5406,0,0,1,2.084.9824.3207.3207,0,0,1,.0655.1943.2981.2981,0,0,1-.5372.1758,2.0143,2.0143,0,0,0-1.6123-.7783c-1.4257,0-2.2412.8613-2.2412,2.6768,0,1.9267.8155,2.6679,2.2412,2.6679a1.9474,1.9474,0,0,0,1.6123-.76.29.29,0,0,1,.24-.12.2929.2929,0,0,1,.2969.2959.2821.2821,0,0,1-.0557.1758,2.5873,2.5873,0,0,1-2.0938.9824C71.6514,110.5859,70.5586,109.6221,70.5586,107.3438Z" transform="translate(-2.8857 -5.9571)"/><path class="a75e7e1a-f1aa-4050-9b96-4e15d1adbebc" d="M78.7168,110.4561a.3118.3118,0,0,1-.3145-.3145v-5.6045a.3118.3118,0,0,1,.3145-.3144H81.69a.2871.2871,0,0,1,0,.5742H79.0322v2.2324h2.0371a.2871.2871,0,1,1,0,.5742H79.0322v2.2783h2.76a.2872.2872,0,0,1,0,.5743Z" transform="translate(-2.8857 -5.9571)"/><path class="a75e7e1a-f1aa-4050-9b96-4e15d1adbebc" d="M90.5957,104.667c-.9727,0-1.3428.4814-1.3428,1.01,0,1.5371,3.501.88,3.501,3.1123,0,1.1572-.7969,1.7968-2.2227,1.7968a2.3983,2.3983,0,0,1-2.1582-1.14.3275.3275,0,0,1-.0468-.167.2979.2979,0,0,1,.5556-.1475,1.8541,1.8541,0,0,0,1.6494.88c1.0186,0,1.5928-.4082,1.5928-1.2226,0-1.7325-3.501-.917-3.501-3.1123,0-.8526.62-1.584,1.9727-1.584a2.3167,2.3167,0,0,1,1.9824.9541.305.305,0,0,1,.0557.1758.298.298,0,0,1-.5371.1767A1.8337,1.8337,0,0,0,90.5957,104.667Z" transform="translate(-2.8857 -5.9571)"/><path class="a75e7e1a-f1aa-4050-9b96-4e15d1adbebc" d="M95.5684,108.5576v-4.0937a.3149.3149,0,1,1,.63,0v4.0937c0,.7315.2686,1.4356,1.5469,1.4356,1.2686,0,1.5371-.7041,1.5371-1.4356v-4.0937a.315.315,0,1,1,.63,0v4.0937c0,1.0186-.417,2.0283-2.167,2.0283S95.5684,109.5762,95.5684,108.5576Z" transform="translate(-2.8857 -5.9571)"/><path class="a75e7e1a-f1aa-4050-9b96-4e15d1adbebc" d="M103.6416,110.2148a.315.315,0,1,1-.63,0v-5.7509a.315.315,0,1,1,.63,0Z" transform="translate(-2.8857 -5.9571)"/><path class="a75e7e1a-f1aa-4050-9b96-4e15d1adbebc" d="M106.5674,104.8154a.2964.2964,0,0,1,0-.5927h3.9365a.2964.2964,0,0,1,0,.5927h-1.6484v5.3994a.315.315,0,1,1-.63,0v-5.3994Z" transform="translate(-2.8857 -5.9571)"/><path class="a75e7e1a-f1aa-4050-9b96-4e15d1adbebc" d="M113.752,110.4561a.3118.3118,0,0,1-.3145-.3145v-5.6045a.3118.3118,0,0,1,.3145-.3144h2.9736a.2871.2871,0,0,1,0,.5742h-2.6582v2.2324h2.0371a.2871.2871,0,1,1,0,.5742h-2.0371v2.2783h2.76a.2872.2872,0,1,1,0,.5743Z" transform="translate(-2.8857 -5.9571)"/><path class="fdff574c-654c-4c97-8ac7-96ad6fd16de4" d="M76.1124,31.4951,71.4889,34.188H82.3756a4.1392,4.1392,0,0,0-.4231-1.1493A4.2888,4.2888,0,0,0,76.1124,31.4951Z" transform="translate(-2.8857 -5.9571)"/><path class="baf546f3-fdb8-4d69-b8b9-5cd885637894" d="M60,62.4189c.243,0,.4782-.03.72-.0364L44.3048,34.188H31.7692A28.2307,28.2307,0,0,0,60,62.4189Z" transform="translate(-2.8857 -5.9571)"/><path class="b2fd2536-38c0-4b85-a403-da48e0957cb4" d="M43.9963,26.925a4.8515,4.8515,0,0,1,2.074-5.9371l22.5749-13.14a4.3961,4.3961,0,0,1,.6432-.2941A28.1706,28.1706,0,0,0,31.7692,34.188H44.3048l-.92-1.5805A4.8464,4.8464,0,0,1,43.9963,26.925Z" transform="translate(-2.8857 -5.9571)"/><path class="a6a71a45-d603-4372-b418-b53355e3f851" d="M81.1556,38.3128a4.2713,4.2713,0,0,1-1.677,5.54L68.6658,50.1506l5.0624,8.6958A28.2112,28.2112,0,0,0,88.2308,34.188H82.3756A4.274,4.274,0,0,1,81.1556,38.3128Z" transform="translate(-2.8857 -5.9571)"/><polygon class="a6a71a45-d603-4372-b418-b53355e3f851" points="59.554 33.501 68.603 28.231 56.487 28.231 59.554 33.501"/><path class="f17d1aaa-f6eb-431f-8b4d-122da204a8ca" d="M74.9053,10.2448A4.2676,4.2676,0,0,1,73.83,14.7575a4.3084,4.3084,0,0,1-1.7353,5.593L56.5761,29.3827l2.7966,4.8053H71.4889l4.6235-2.6929a4.2888,4.2888,0,0,1,5.84,1.5436,4.1392,4.1392,0,0,1,.4231,1.1493h5.8552A28.1833,28.1833,0,0,0,74.9053,10.2448Z" transform="translate(-2.8857 -5.9571)"/><path class="adbd706d-b553-4e26-9110-aa5aac584011" d="M80.4089,38.8733,66.7366,46.8365l1.9292,3.3141L79.4786,43.853a4.2713,4.2713,0,0,0,1.677-5.54A4.2065,4.2065,0,0,1,80.4089,38.8733Z" transform="translate(-2.8857 -5.9571)"/><path class="adbd706d-b553-4e26-9110-aa5aac584011" d="M54.6467,26.0674l1.9294,3.3153,15.5186-9.0322a4.3084,4.3084,0,0,0,1.7353-5.593,4.4259,4.4259,0,0,1-.8049.6132Z" transform="translate(-2.8857 -5.9571)"/><path class="adbd706d-b553-4e26-9110-aa5aac584011" d="M43.9963,26.925a4.8464,4.8464,0,0,0-.6116,5.6825L60.72,62.3825a28.3056,28.3056,0,0,0,3.6353-.3335L44.315,27.6277A4.8171,4.8171,0,0,1,43.9963,26.925Z" transform="translate(-2.8857 -5.9571)"/><path class="b02ce5bb-3ccd-4962-9332-17a45cd6dff7" d="M80.4089,38.8733a4.2065,4.2065,0,0,0,.7467-.56,4.2652,4.2652,0,0,0-5.0432-6.8177L62.44,39.4583,56.5761,29.3827l-1.9294-3.3153L73.0251,15.3707a4.4259,4.4259,0,0,0,.8049-.6132,4.2676,4.2676,0,0,0,1.0753-4.5127,28.0609,28.0609,0,0,0-5.6169-2.6913,4.3961,4.3961,0,0,0-.6432.2941L46.07,20.9879a4.9748,4.9748,0,0,0-1.7553,6.64l20.04,34.4213a28.0235,28.0235,0,0,0,9.3733-3.2026l-5.0624-8.6958-1.9292-3.3141Z" transform="translate(-2.8857 -5.9571)"/></svg>