<?xml version="1.0" encoding="UTF-8"?>
<!DOCTYPE svg PUBLIC "-//W3C//DTD SVG 1.1//EN" "http://www.w3.org/Graphics/SVG/1.1/DTD/svg11.dtd">
<!-- Creator: CorelDRAW X5 -->
<svg xmlns="http://www.w3.org/2000/svg" xml:space="preserve" width="20.5854mm" height="20.646mm" style="shape-rendering:geometricPrecision; text-rendering:geometricPrecision; image-rendering:optimizeQuality; fill-rule:evenodd; clip-rule:evenodd"
viewBox="0 0 20.5854 20.646"
 xmlns:xlink="http://www.w3.org/1999/xlink">
 <defs>
  <style type="text/css">
   <![CDATA[
    .str0 {stroke:white;stroke-width:0.8}
    .fil0 {fill:none}
   ]]>
  </style>
 </defs>
 <g id="Layer_x0020_1">
  <metadata id="CorelCorpID_0Corel-Layer"/>
  <path class="fil0 str0" d="M1.0951 11.2083l7.5234 0c0.3839,-0.0001 0.6952,0.3112 0.6952,0.695l-0.0001 7.6476c0.0001,0.3837 -0.3112,0.695 -0.695,0.695l-7.5235 0.0001c-0.3837,-0.0001 -0.695,-0.3114 -0.695,-0.6952l-0.0001 -7.6474c0.0001,-0.3839 0.3114,-0.6952 0.6952,-0.6952l-0.0001 0.0001z"/>
  <path class="fil0 str0" d="M11.9669 11.2083l7.5234 0c0.3838,-0.0001 0.6951,0.3112 0.6951,0.695l0 7.6476c0,0.3837 -0.3113,0.695 -0.6951,0.695l-7.5234 0.0001c-0.3838,-0.0001 -0.6951,-0.3114 -0.6951,-0.6952l0 -7.6474c0,-0.3839 0.3113,-0.6952 0.6951,-0.6952l0 0.0001z"/>
  <path class="fil0 str0" d="M1.0951 0.4l7.5234 0c0.3839,0 0.6952,0.3113 0.6952,0.6951l-0.0001 7.6476c0.0001,0.3838 -0.3112,0.6951 -0.695,0.6951l-7.5235 0c-0.3837,0 -0.695,-0.3113 -0.695,-0.6951l-0.0001 -7.6476c0.0001,-0.3838 0.3114,-0.6951 0.6952,-0.6951l-0.0001 0z"/>
  <path class="fil0 str0" d="M11.9669 0.4l7.5234 0c0.3838,0 0.6951,0.3113 0.6951,0.6951l0 7.6476c0,0.3838 -0.3113,0.6951 -0.6951,0.6951l-7.5234 0c-0.3838,0 -0.6951,-0.3113 -0.6951,-0.6951l0 -7.6476c0,-0.3838 0.3113,-0.6951 0.6951,-0.6951z"/>
 </g>
</svg>
