<svg xmlns="http://www.w3.org/2000/svg" width="24" height="24" viewBox="0 0 24 24"><defs><style>.a{fill:#4b70ff;}.b,.c{fill:none;}.c{stroke:#4b70ff;}</style></defs><path class="a" d="M16.051,7.117H13.414a3.434,3.434,0,0,1,1.231,2.426h1.7l-.29.914h-1.4a3.319,3.319,0,0,1-1.173,2.41,4.305,4.305,0,0,1-2.834.869l4.324,5.15V19H13.722L9.169,13.6l-.009-.774h1.433a3.176,3.176,0,0,0,2.021-.639,2.581,2.581,0,0,0,.949-1.725H8.448l.29-.914h4.817a2.625,2.625,0,0,0-.932-1.733,3.449,3.449,0,0,0-2.153-.693H8.58l.3-.914h7.462Z"/><circle class="b" cx="12" cy="12" r="12" transform="translate(0 0)"/><circle class="c" cx="11.5" cy="11.5" r="11.5" transform="translate(0.5 0.5)"/></svg>