<svg xmlns="http://www.w3.org/2000/svg" width="18.27" height="24" viewBox="0 0 18.27 24"><defs><style>.a{fill:#4b70ff;}</style></defs><g transform="translate(-61.127)"><g transform="translate(61.127)"><path class="a" d="M75.814,15.584A3.166,3.166,0,0,1,72.621,12.7a5.415,5.415,0,0,0,1.248-1.234A7.5,7.5,0,0,0,75.22,7.945a.537.537,0,0,0,.136-.191,5.816,5.816,0,0,0,.451-2.264A5.308,5.308,0,0,0,70.716,0,4.726,4.726,0,0,0,68.6.5a3.724,3.724,0,0,0-.749.134,4.21,4.21,0,0,0-2.642,2.407,5.979,5.979,0,0,0-.3,3.924,6.322,6.322,0,0,0,.274.831.537.537,0,0,0,.127.185A6.748,6.748,0,0,0,67.9,12.7a3.167,3.167,0,0,1-3.193,2.885,3.713,3.713,0,0,0-3.582,3.706V23.46a.54.54,0,0,0,.54.54H78.856a.54.54,0,0,0,.54-.54V19.291A3.713,3.713,0,0,0,75.814,15.584ZM68.147,1.676a2.663,2.663,0,0,1,.619-.1.54.54,0,0,0,.227-.061,3.672,3.672,0,0,1,1.723-.433,4.229,4.229,0,0,1,4.01,4.41c0,.073,0,.146-.005.218A2.356,2.356,0,0,0,73.038,5H69.355a1.006,1.006,0,0,1-.934-.631.662.662,0,0,0-1.256.083,5.012,5.012,0,0,1-1.223,2.188C65.4,4.406,66.379,2.187,68.147,1.676Zm-.47,9.346a6.355,6.355,0,0,1-1.31-3.289,6.124,6.124,0,0,0,1.572-2.2,2.108,2.108,0,0,0,.168.139,2.071,2.071,0,0,0,1.248.414h3.683a1.284,1.284,0,0,1,1.171.76s0,.008,0,.011c0,3.051-1.77,5.532-3.946,5.532A3.38,3.38,0,0,1,67.677,11.022Zm1.242,2.207a3.932,3.932,0,0,0,2.686,0,4.231,4.231,0,0,0,1.572,2.548l-2.838,4.041a.093.093,0,0,1-.153,0l-2.838-4.042A4.232,4.232,0,0,0,68.919,13.23Zm9.4,9.69H62.208V19.29a2.632,2.632,0,0,1,2.629-2.629,4.632,4.632,0,0,0,1.576-.333L69.3,20.442a1.175,1.175,0,0,0,.961.5h0a1.175,1.175,0,0,0,.961-.5l2.888-4.113a4.449,4.449,0,0,0,1.575.333,2.632,2.632,0,0,1,2.629,2.629v3.629Z" transform="translate(-61.127)"/></g></g></svg>