<?xml version="1.0" encoding="UTF-8"?>
<!DOCTYPE svg PUBLIC "-//W3C//DTD SVG 1.1//EN" "http://www.w3.org/Graphics/SVG/1.1/DTD/svg11.dtd">
<!-- Creator: CorelDRAW X5 -->
<svg xmlns="http://www.w3.org/2000/svg" xml:space="preserve" width="20.5854mm" height="20.6461mm" style="shape-rendering:geometricPrecision; text-rendering:geometricPrecision; image-rendering:optimizeQuality; fill-rule:evenodd; clip-rule:evenodd"
viewBox="0 0 20.6859 20.7469"
 xmlns:xlink="http://www.w3.org/1999/xlink">
 <defs>
  <style type="text/css">
   <![CDATA[
    .str0 {stroke:#963935;stroke-width:0.803905}
    .fil0 {fill:none}
   ]]>
  </style>
 </defs>
 <g id="Layer_x0020_1">
  <metadata id="CorelCorpID_0Corel-Layer"/>
  <path class="fil0 str0" d="M1.10045 11.2631l7.56013 0c0.385774,-0.000100488 0.698594,0.312719 0.698594,0.698393l-0.000100488 7.68493c0.000100488,0.385573 -0.312719,0.698393 -0.698393,0.698393l-7.56023 0.000100488c-0.385573,-0.000100488 -0.698393,-0.31292 -0.698393,-0.698594l-0.000100488 -7.68473c0.000100488,-0.385774 0.31292,-0.698594 0.698594,-0.698594z"/>
  <path class="fil0 str0" d="M12.0253 11.2631l7.56013 0c0.385674,-0.000100488 0.698493,0.312719 0.698493,0.698393l0 7.68493c0,0.385573 -0.31282,0.698393 -0.698493,0.698393l-7.56013 0.000100488c-0.385674,-0.000100488 -0.698493,-0.31292 -0.698493,-0.698594l0 -7.68473c0,-0.385774 0.31282,-0.698594 0.698493,-0.698594z"/>
  <path class="fil0 str0" d="M1.10045 0.401953l7.56013 0c0.385774,0 0.698594,0.31282 0.698594,0.698493l-0.000100488 7.68493c0.000100488,0.385674 -0.312719,0.698493 -0.698393,0.698493l-7.56023 0c-0.385573,0 -0.698393,-0.31282 -0.698393,-0.698493l-0.000100488 -7.68493c0.000100488,-0.385674 0.31292,-0.698493 0.698594,-0.698493z"/>
  <path class="fil0 str0" d="M12.0253 0.401953l7.56013 0c0.385674,0 0.698493,0.31282 0.698493,0.698493l0 7.68493c0,0.385674 -0.31282,0.698493 -0.698493,0.698493l-7.56013 0c-0.385674,0 -0.698493,-0.31282 -0.698493,-0.698493l0 -7.68493c0,-0.385674 0.31282,-0.698493 0.698493,-0.698493z"/>
 </g>
</svg>
