<svg xmlns="http://www.w3.org/2000/svg" xmlns:xlink="http://www.w3.org/1999/xlink" width="24" height="24" viewBox="0 0 24 24"><defs><style>.a{fill:none;}.b,.f{fill:#4b70ff;}.c{clip-path:url(#a);}.d{fill:#fff;fill-rule:evenodd;}.e,.f{stroke:none;}</style><clipPath id="a"><rect class="a" width="18" height="18"/></clipPath></defs><g transform="translate(-278 -115)"><g class="b" transform="translate(278 115)"><path class="e" d="M 19 23.5 L 5 23.5 C 2.51869010925293 23.5 0.5 21.48130989074707 0.5 19 L 0.5 5 C 0.5 2.51869010925293 2.51869010925293 0.5 5 0.5 L 19 0.5 C 21.48130989074707 0.5 23.5 2.51869010925293 23.5 5 L 23.5 19 C 23.5 21.48130989074707 21.48130989074707 23.5 19 23.5 Z"/><path class="f" d="M 5 1 C 2.794389724731445 1 1 2.794389724731445 1 5 L 1 19 C 1 21.20561027526855 2.794389724731445 23 5 23 L 19 23 C 21.20561027526855 23 23 21.20561027526855 23 19 L 23 5 C 23 2.794389724731445 21.20561027526855 1 19 1 L 5 1 M 5 0 L 19 0 C 21.76141929626465 0 24 2.238580703735352 24 5 L 24 19 C 24 21.76141929626465 21.76141929626465 24 19 24 L 5 24 C 2.238580703735352 24 0 21.76141929626465 0 19 L 0 5 C 0 2.238580703735352 2.238580703735352 0 5 0 Z"/></g><g class="c" transform="translate(281 118)"><rect class="a" width="18" height="18"/><path class="d" d="M14,8.375H6.375l3.5-3.5L9,4,4,9l5,5,.875-.875-3.5-3.5H14V8.375Z"/></g></g></svg>