<?xml version="1.0" encoding="UTF-8"?>
<!DOCTYPE svg PUBLIC "-//W3C//DTD SVG 1.1//EN" "http://www.w3.org/Graphics/SVG/1.1/DTD/svg11.dtd">
<!-- Creator: CorelDRAW X5 -->
<svg xmlns="http://www.w3.org/2000/svg" xml:space="preserve" width="22.6681mm" height="24.1611mm" style="shape-rendering:geometricPrecision; text-rendering:geometricPrecision; image-rendering:optimizeQuality; fill-rule:evenodd; clip-rule:evenodd"
viewBox="0 0 1.7302 1.84415"
 xmlns:xlink="http://www.w3.org/1999/xlink">
 <defs>
  <style type="text/css">
   <![CDATA[
    .str0 {stroke:#FEFEFE;stroke-width:0.0646264}
    .fil0 {fill:none}
   ]]>
  </style>
 </defs>
 <g id="Layer_x0020_1">
  <metadata id="CorelCorpID_0Corel-Layer"/>
  <rect class="fil0 str0" transform="matrix(0.846941 -0.560188 0.846941 0.560188 0.0253979 0.578275)" width="0.989554" height="0.989554" rx="0.0248217" ry="0.0248217"/>
  <path class="fil0 str0" d="M0.152472 0.840647l-0.116094 0.0765869c-0.00473993,0.00349579 -0.00567112,0.00850287 -0.00101515,0.0122887l0.815665 0.540436c0.00870895,0.00531239 0.0177843,0.00459491 0.0270962,-0.000946459l0.818748 -0.542039c0.00236615,-0.00168683 0.000427433,-0.00518263 -0.0034042,-0.00804491l-0.123261 -0.0819832"/>
  <path class="fil0 str0" d="M0.152472 1.17891l-0.116094 0.0765869c-0.00473993,0.00349579 -0.00567112,0.00850287 -0.00101515,0.0122887l0.815665 0.540436c0.00870895,0.00531239 0.0177843,0.00459491 0.0270962,-0.000946459l0.818748 -0.542039c0.00236615,-0.00168683 0.000427433,-0.00518263 -0.0034042,-0.00804491l-0.123261 -0.0819832"/>
 </g>
</svg>
