<?xml version="1.0" encoding="UTF-8"?>
<!DOCTYPE svg PUBLIC "-//W3C//DTD SVG 1.1//EN" "http://www.w3.org/Graphics/SVG/1.1/DTD/svg11.dtd">
<!-- Creator: CorelDRAW X5 -->
<svg xmlns="http://www.w3.org/2000/svg" xml:space="preserve" width="5.33335in" height="5.32555in" style="shape-rendering:geometricPrecision; text-rendering:geometricPrecision; image-rendering:optimizeQuality; fill-rule:evenodd; clip-rule:evenodd"
viewBox="0 0 5333 5326"
 xmlns:xlink="http://www.w3.org/1999/xlink">
 <defs>
  <style type="text/css">
   <![CDATA[
    .fil0 {fill:#4B70FF}
   ]]>
  </style>
 </defs>
 <g id="Layer_x0020_1">
  <metadata id="CorelCorpID_0Corel-Layer"/>
  <g id="_401762280">
   <g>
    <g>
     <path class="fil0" d="M2501 1577l-517 517c-190,190 -382,381 -571,573 -45,46 -78,107 -91,166 -69,314 -135,629 -201,943l-37 174c-17,85 5,170 63,227 45,45 107,70 172,70 18,0 37,-2 55,-5l191 -40c305,-64 610,-129 915,-193 71,-15 131,-47 182,-98 855,-856 1710,-1711 2565,-2565 63,-63 98,-138 107,-231 1,-15 0,-30 -3,-45 -5,-22 -10,-45 -15,-66 -12,-55 -25,-119 -51,-179l0 0c-160,-365 -425,-627 -789,-773 -73,-29 -150,-39 -218,-48l-18 -2c-98,-12 -187,21 -264,99 -489,492 -982,984 -1474,1476zm1702 -1313c2,0 3,0 5,0l18 2c57,7 109,13 150,30 296,120 513,333 645,633 15,35 25,79 35,126 3,17 8,35 11,52 -4,20 -12,33 -27,47 -856,854 -1711,1710 -2566,2565 -14,14 -27,21 -47,25 -306,64 -610,128 -916,193l-161 34 30 -142c66,-313 133,-628 200,-941 2,-10 11,-25 21,-36 189,-191 379,-382 569,-571l517 -517c493,-493 985,-985 1477,-1479 21,-17 30,-21 38,-21z" data-original="#000000" data-old_color="#000000"/>
     <path class="fil0" d="M423 1186l1899 0c74,0 134,-60 134,-134 0,-74 -60,-134 -134,-134l-1899 0c-234,0 -423,190 -423,423l0 3561c0,234 190,423 423,423l3560 0c234,0 423,-190 423,-423l0 -1822c0,-74 -60,-134 -134,-134 -74,0 -134,60 -134,134l0 1822c0,86 -71,157 -157,157l-3559 0c-86,0 -157,-71 -157,-157l0 -3560c0,-86 71,-157 157,-157z" data-original="#000000" data-old_color="#000000"/>
    </g>
   </g>
  </g>
 </g>
</svg>
