<?xml version="1.0" encoding="UTF-8"?>
<!DOCTYPE svg PUBLIC "-//W3C//DTD SVG 1.1//EN" "http://www.w3.org/Graphics/SVG/1.1/DTD/svg11.dtd">
<!-- Creator: CorelDRAW X5 -->
<svg xmlns="http://www.w3.org/2000/svg" xml:space="preserve" width="22.6681mm" height="24.1611mm" style="shape-rendering:geometricPrecision; text-rendering:geometricPrecision; image-rendering:optimizeQuality; fill-rule:evenodd; clip-rule:evenodd"
viewBox="0 0 1.34264 1.43107"
 xmlns:xlink="http://www.w3.org/1999/xlink">
 <defs>
  <style type="text/css">
   <![CDATA[
    .str0 {stroke:#E63C24;stroke-width:0.0501504}
    .fil0 {fill:none}
   ]]>
  </style>
 </defs>
 <g id="Layer_x0020_1">
  <metadata id="CorelCorpID_0Corel-Layer"/>
  <rect class="fil0 str0" transform="matrix(0.846941 -0.560188 0.846941 0.560188 0.0197089 0.448745)" width="0.767899" height="0.767899" rx="0.0192617" ry="0.0192617"/>
  <path class="fil0 str0" d="M0.118319 0.652346l-0.0900895 0.0594318c-0.00367821,0.00271275 -0.00440082,0.00659827 -0.000787765,0.0095361l0.63296 0.419381c0.00675819,0.00412244 0.0138007,0.00356567 0.0210268,-0.000734457l0.635353 -0.420625c0.00183614,-0.00130899 0.00033169,-0.00402175 -0.00264168,-0.00624289l-0.0956512 -0.0636194"/>
  <path class="fil0 str0" d="M0.118319 0.914844l-0.0900895 0.0594318c-0.00367821,0.00271275 -0.00440082,0.00659827 -0.000787765,0.0095361l0.63296 0.419381c0.00675819,0.00412244 0.0138007,0.00356567 0.0210268,-0.000734457l0.635353 -0.420625c0.00183614,-0.00130899 0.00033169,-0.00402175 -0.00264168,-0.00624289l-0.0956512 -0.0636194"/>
 </g>
</svg>
