<?xml version="1.0" encoding="UTF-8"?>
<!DOCTYPE svg PUBLIC "-//W3C//DTD SVG 1.1//EN" "http://www.w3.org/Graphics/SVG/1.1/DTD/svg11.dtd">
<!-- Creator: CorelDRAW X5 -->
<svg xmlns="http://www.w3.org/2000/svg" xml:space="preserve" width="4.614in" height="5.33333in" style="shape-rendering:geometricPrecision; text-rendering:geometricPrecision; image-rendering:optimizeQuality; fill-rule:evenodd; clip-rule:evenodd"
viewBox="0 0 4614 5333"
 xmlns:xlink="http://www.w3.org/1999/xlink">
 <defs>
  <style type="text/css">
   <![CDATA[
    .fil0 {fill:#4B70FF}
   ]]>
  </style>
 </defs>
 <g id="Layer_x0020_1">
  <metadata id="CorelCorpID_0Corel-Layer"/>
  <g id="_555013936">
   <g>
    <path class="fil0" d="M4488 503l-1433 0 0 -253c0,-138 -112,-250 -249,-250l-998 0c-137,0 -249,112 -249,250l0 253 -1433 0c-69,0 -126,56 -126,126 0,69 56,126 126,126l233 0 159 4129c10,253 215,451 468,451l2644 0c253,0 459,-198 468,-451l159 -4129 233 0c69,0 126,-56 126,-126 0,-69 -56,-125 -126,-125zm-2679 -252l994 0 0 251 -994 0 0 -251zm2036 4622c-5,117 -100,209 -218,209l-2644 0c-117,0 -213,-92 -218,-209l-158 -4119 3395 0 -158 4119z" data-original="#000000" data-old_color="#000000"/>
   </g>
  </g>
  <g id="_555014008">
   <g>
    <path class="fil0" d="M1543 1891c-1,-68 -57,-123 -125,-123 -1,0 -2,0 -2,0 -69,1 -124,59 -123,128l39 2048c1,68 57,123 125,123 1,0 2,0 2,0 69,-1 124,-59 123,-128l-39 -2048z" data-original="#000000" data-old_color="#000000"/>
   </g>
  </g>
  <g id="_555014104">
   <g>
    <path class="fil0" d="M2307 1768c-69,0 -126,56 -126,126l0 2048c0,69 56,126 126,126 69,0 126,-56 126,-126l0 -2048c0,-69 -56,-126 -126,-126z" data-original="#000000" data-old_color="#000000"/>
   </g>
  </g>
  <g id="_555012160">
   <g>
    <path class="fil0" d="M3199 1768c-69,-2 -127,54 -128,123l-39 2048c-1,69 54,127 123,128 1,0 2,0 2,0 68,0 124,-55 125,-123l39 -2048c1,-69 -54,-127 -123,-128z" data-original="#000000" data-old_color="#000000"/>
   </g>
  </g>
 </g>
</svg>
