<svg xmlns="http://www.w3.org/2000/svg" width="24" height="24" viewBox="0 0 24 24"><defs><style>.a{fill:#4b70ff;}</style></defs><path class="a" d="M22.764,9.333H20.519a.862.862,0,0,1-.61-1.472L21.5,6.275a1.237,1.237,0,0,0,0-1.748L19.473,2.5a1.265,1.265,0,0,0-1.748,0L16.138,4.09a.862.862,0,0,1-1.472-.609V1.236A1.237,1.237,0,0,0,13.431,0H10.569A1.237,1.237,0,0,0,9.333,1.236V3.481a.862.862,0,0,1-1.472.609L6.275,2.5a1.265,1.265,0,0,0-1.748,0L2.5,4.527a1.237,1.237,0,0,0,0,1.748L4.091,7.862a.862.862,0,0,1-.61,1.472H1.236A1.237,1.237,0,0,0,0,10.569v2.862a1.237,1.237,0,0,0,1.236,1.236H3.481a.862.862,0,0,1,.61,1.472L2.5,17.725a1.237,1.237,0,0,0,0,1.748L4.527,21.5a1.265,1.265,0,0,0,1.748,0l1.587-1.588a.862.862,0,0,1,1.472.61v2.245A1.237,1.237,0,0,0,10.569,24h2.862a1.237,1.237,0,0,0,1.236-1.236V20.519a.862.862,0,0,1,1.472-.61L17.725,21.5a1.265,1.265,0,0,0,1.748,0L21.5,19.473a1.237,1.237,0,0,0,0-1.748l-1.588-1.587a.862.862,0,0,1,.61-1.472h2.245A1.237,1.237,0,0,0,24,13.431V10.569A1.237,1.237,0,0,0,22.764,9.333Zm.347,4.1a.347.347,0,0,1-.347.347H20.519a1.751,1.751,0,0,0-1.238,2.989l1.588,1.587a.347.347,0,0,1,0,.491l-2.024,2.024a.347.347,0,0,1-.491,0l-1.587-1.588a1.751,1.751,0,0,0-2.989,1.238v2.245a.347.347,0,0,1-.347.347H10.569a.347.347,0,0,1-.347-.347V20.519A1.724,1.724,0,0,0,9.141,18.9a1.771,1.771,0,0,0-.681-.138,1.727,1.727,0,0,0-1.227.517L5.646,20.868a.347.347,0,0,1-.491,0L3.132,18.844a.347.347,0,0,1,0-.491l1.588-1.587a1.751,1.751,0,0,0-1.238-2.989H1.236a.347.347,0,0,1-.347-.347V10.569a.347.347,0,0,1,.347-.347H3.481A1.751,1.751,0,0,0,4.719,7.233L3.132,5.646a.347.347,0,0,1,0-.491L5.155,3.132a.347.347,0,0,1,.491,0L7.233,4.719a1.751,1.751,0,0,0,2.989-1.238V1.236a.347.347,0,0,1,.347-.347h2.862a.347.347,0,0,1,.347.347V3.481a1.751,1.751,0,0,0,2.989,1.238l1.587-1.587a.347.347,0,0,1,.491,0l2.024,2.024a.347.347,0,0,1,0,.491L19.281,7.233a1.751,1.751,0,0,0,1.238,2.989h2.245a.346.346,0,0,1,.347.346Z"/><path class="a" d="M22,18a4,4,0,1,0,4,4A4,4,0,0,0,22,18Zm0,7.111A3.111,3.111,0,1,1,25.111,22,3.115,3.115,0,0,1,22,25.111Z" transform="translate(-10 -10)"/></svg>