<?xml version="1.0" encoding="utf-8"?>
<!-- Generator: Adobe Illustrator 22.1.0, SVG Export Plug-In . SVG Version: 6.00 Build 0)  -->
<svg version="1.1" id="Capa_1" xmlns="http://www.w3.org/2000/svg" xmlns:xlink="http://www.w3.org/1999/xlink" x="0px" y="0px"
	 viewBox="0 0 30.7 30.7" style="enable-background:new 0 0 30.7 30.7;" xml:space="preserve">
<style type="text/css">
	.st0{fill:none;stroke:#7A7A7C;stroke-miterlimit:10;}
</style>
<g>
	<path class="st0" d="M27.6,10.1h-0.8v8.6c0,1.3-0.8,2.5-2.3,2.5H9.2v0.4c0,1.2,1.3,2.4,2.7,2.4h11.7l4.5,2.6L27.5,24h0.2
		c1.4,0,2-1.2,2-2.4v-9.5C29.6,10.9,29,10.1,27.6,10.1z"/>
	<path class="st0" d="M22.2,4.1H4.5c-1.6,0-3.4,1.4-3.4,2.7v10.8c0,1.2,1.5,2.1,3,2.3l-1,3.6l6.1-3.6h13c1.6,0,3-0.9,3-2.3V8.9V6.8
		C25.2,5.5,23.8,4.1,22.2,4.1z M7.2,13.2c-0.9,0-1.6-0.7-1.6-1.6c0-0.9,0.7-1.6,1.6-1.6c0.9,0,1.6,0.7,1.6,1.6
		C8.8,12.5,8.1,13.2,7.2,13.2z M13.2,13.2c-0.9,0-1.6-0.7-1.6-1.6c0-0.9,0.7-1.6,1.6-1.6c0.9,0,1.6,0.7,1.6,1.6S14.1,13.2,13.2,13.2
		z M19.2,13.2c-0.9,0-1.6-0.7-1.6-1.6c0-0.9,0.7-1.6,1.6-1.6c0.9,0,1.6,0.7,1.6,1.6C20.8,12.5,20.1,13.2,19.2,13.2z"/>
</g>
</svg>
