<?xml version="1.0" encoding="utf-8"?>
<!-- Generator: Adobe Illustrator 22.1.0, SVG Export Plug-In . SVG Version: 6.00 Build 0)  -->
<svg version="1.1" id="Layer_1" xmlns="http://www.w3.org/2000/svg" xmlns:xlink="http://www.w3.org/1999/xlink" x="0px" y="0px"
	 viewBox="0 0 512 512" style="enable-background:new 0 0 512 512;" xml:space="preserve">
<style type="text/css">
	.st0{fill:#4B70FF;}
</style>
<g>
	<g>
		<path class="st0" d="M494.2,488c0,0,0-225.8,0-301c0-3.1-3.9-7-7.7-9.9L407.8,120V56.9c0-6.2-5.2-10.4-10.4-10.4h-89.7L262,13.2
			c-3.1-2.1-8.3-2.1-11.5,0l-45.7,33.3h-89.7c-6.2,0-10.4,5.2-10.4,10.4v62.4L25,177.2c-4.7,2.9-7.7,6.7-7.7,9.9c0,75.7,0,303,0,303
			c0,5.9,4.7,10,9.6,10.4c0.3,0,0.5,0,0.8,0h456C490.4,500.4,494.2,495.2,494.2,488z M474.4,205.7v263.6L302.3,331.5L474.4,205.7
			L474.4,205.7z M466.7,187.4l-58.9,42.9v-86.2L466.7,187.4L466.7,187.4z M255.8,32.9l18.3,13.5h-36.7L255.8,32.9L255.8,32.9z
			 M387,67.3v178.2l-131.2,95.6l-131.2-95.6V67.3C124.6,67.3,387,67.3,387,67.3z M37.2,205.7l172.1,125.8L37.2,470.1V205.7z
			 M104.8,231.1l-60.4-44l60.4-43.9V231.1z M55.9,480.6L226,343.7l23.5,17.2c4.5,3.4,7.9,3.4,12.5,0l23.5-17.2l171.1,136.9H55.9
			L55.9,480.6z"/>
		<rect x="186.1" y="118.3" class="st0" width="140.5" height="19.8"/>
		<rect x="186.1" y="181.8" class="st0" width="140.5" height="19.8"/>
		<rect x="186.1" y="245.3" class="st0" width="140.5" height="19.8"/>
	</g>
</g>
</svg>
