<svg xmlns="http://www.w3.org/2000/svg" width="24" height="24" viewBox="0 0 24 24"><defs><style>.a{fill:#4b70ff;}</style></defs><path class="a" d="M13.32,10.455H11.274V8.409a.409.409,0,1,0-.818,0v2.046H8.409a.409.409,0,0,0,0,.818h2.046V13.32a.409.409,0,0,0,.818,0V11.274H13.32a.409.409,0,0,0,0-.818Z" transform="translate(-4.726 -4.726)"/><path class="a" d="M41.32,14H36.409a.409.409,0,1,0,0,.818H41.32a.409.409,0,1,0,0-.818Z" transform="translate(-21.003 -8.205)"/><path class="a" d="M12.414,0H0V24H24V0ZM.828.828H11.586V11.586H.828Zm0,22.345V12.414H11.586V23.172Zm22.345,0H12.414V12.414H23.172ZM12.414,11.586V.828H23.172V11.586Z"/><path class="a" d="M36.409,45.818H41.32a.409.409,0,1,0,0-.818H36.409a.409.409,0,0,0,0,.818Z" transform="translate(-21.003 -26.372)"/><path class="a" d="M36.409,39.818H41.32a.409.409,0,1,0,0-.818H36.409a.409.409,0,1,0,0,.818Z" transform="translate(-21.003 -22.856)"/><path class="a" d="M13.791,37.12a.409.409,0,0,0-.579,0l-1.757,1.757L9.7,37.12a.409.409,0,0,0-.579.579l1.757,1.757L9.12,41.212a.409.409,0,1,0,.579.579l1.757-1.757,1.757,1.757a.409.409,0,0,0,.579-.579l-1.757-1.757L13.791,37.7A.409.409,0,0,0,13.791,37.12Z" transform="translate(-5.265 -21.645)"/></svg>