<?xml version="1.0"?>
<svg xmlns="http://www.w3.org/2000/svg" xmlns:xlink="http://www.w3.org/1999/xlink" version="1.1" id="Capa_1" x="0px" y="0px" width="512px" height="512px" viewBox="0 0 612 612" style="enable-background:new 0 0 612 612;" xml:space="preserve" class=""><g><g>
	<path d="M612,306C612,137.004,474.995,0,306,0C137.004,0,0,137.004,0,306c0,168.995,137.004,306,306,306   C474.995,612,612,474.995,612,306z M472.909,250.364c30.711,0,55.637,24.925,55.637,55.636c0,30.711-24.926,55.637-55.637,55.637   c-30.739,0-55.637-24.897-55.637-55.637S442.17,250.364,472.909,250.364z M139.091,361.637c-30.739,0-55.636-24.897-55.636-55.637   s24.897-55.636,55.636-55.636c30.711,0,55.636,24.925,55.636,55.636C194.727,336.711,169.802,361.637,139.091,361.637z    M250.364,306c0-30.739,24.897-55.636,55.636-55.636c30.711,0,55.637,24.925,55.637,55.636c0,30.711-24.926,55.637-55.637,55.637   C275.261,361.637,250.364,336.739,250.364,306z" data-original="#000000" class="active-path" data-old_color="#000000" fill="#FFFFFF"/>
</g></g> </svg>
