<?xml version="1.0" encoding="utf-8"?>
<!-- Generator: Adobe Illustrator 22.1.0, SVG Export Plug-In . SVG Version: 6.00 Build 0)  -->
<svg version="1.1" id="Layer_1" xmlns="http://www.w3.org/2000/svg" xmlns:xlink="http://www.w3.org/1999/xlink" x="0px" y="0px"
	 viewBox="0 0 490 490" style="enable-background:new 0 0 490 490;" xml:space="preserve">
<style type="text/css">
	.st0{fill:#4B70FF;stroke:#4B70FF;stroke-miterlimit:10;}
</style>
<g>
	<g>
		<path class="st0" d="M481.9,342.9V162.2c0-22.7-18.5-41.2-41.2-41.2H391V26.5C391,11.9,379.1,0,364.5,0H125.4
			c-14.6,0-26.5,11.9-26.5,26.5V121H49.3c-22.7,0-41.2,18.5-41.2,41.2v180.7c0,22.7,18.5,41.2,41.2,41.2h49.6v79.4
			c0,14.6,11.9,26.5,26.5,26.5h239.1c14.6,0,26.5-11.9,26.5-26.5V384h49.6C463.5,384,481.9,365.6,481.9,342.9z M118.8,26.5
			c0-3.7,3-6.7,6.7-6.7h239.1c3.7,0,6.7,3,6.7,6.7V121H118.8V26.5z M371.4,463.5c0,3.7-3,6.7-6.7,6.7H125.4c-3.7,0-6.7-3-6.7-6.7
			v-201h252.5v201H371.4z M462,342.9c0,11.8-9.6,21.4-21.4,21.4H391V252.6c0-5.5-4.4-9.9-9.9-9.9H108.9c-5.5,0-9.9,4.4-9.9,9.9
			v111.7H49.4c-11.8,0-21.4-9.6-21.4-21.4V162.2c0-11.8,9.6-21.4,21.4-21.4h391.3c11.8,0,21.4,9.6,21.4,21.4V342.9L462,342.9z"/>
		<path class="st0" d="M78.6,181.6c-2.6,0-5.1,1.1-7,2.9c-1.8,1.9-2.9,4.4-2.9,7s1.1,5.1,2.9,7c1.9,1.8,4.4,2.9,7,2.9s5.1-1.1,7-2.9
			c1.8-1.8,2.9-4.4,2.9-7s-1.1-5.1-2.9-7C83.8,182.7,81.2,181.6,78.6,181.6z"/>
		<path class="st0" d="M174.9,376.2h140.3c5.5,0,9.9-4.4,9.9-9.9s-4.4-9.9-9.9-9.9H174.9c-5.5,0-9.9,4.4-9.9,9.9
			S169.4,376.2,174.9,376.2z"/>
		<path class="st0" d="M174.9,432.3h140.3c5.5,0,9.9-4.4,9.9-9.9s-4.4-9.9-9.9-9.9H174.9c-5.5,0-9.9,4.4-9.9,9.9
			S169.4,432.3,174.9,432.3z"/>
		<path class="st0" d="M174.9,320.1h140.3c5.5,0,9.9-4.4,9.9-9.9s-4.4-9.9-9.9-9.9H174.9c-5.5,0-9.9,4.4-9.9,9.9
			S169.4,320.1,174.9,320.1z"/>
	</g>
</g>
</svg>
