<?xml version="1.0"?>
<svg xmlns="http://www.w3.org/2000/svg" id="Layer_1" data-name="Layer 1" viewBox="0 0 512 512" width="512px" height="512px"><g><title class="active-path">Piggy bank  Rupee</title><path d="M75.5,360.65H91.82c8.341,16.143,21.272,30.9,37.679,42.991V443.97a16.019,16.019,0,0,0,16,16h40a16.019,16.019,0,0,0,16-16v-9.49a14.015,14.015,0,0,1,14-14h57.77a14.015,14.015,0,0,1,14,14v9.49a16.019,16.019,0,0,0,16,16h40a16.019,16.019,0,0,0,16-16v-47.3c23.633-20.395,37.517-46.089,39.7-73.256h4.3a6.488,6.488,0,0,1,6.481,6.48v6.166a18.5,18.5,0,0,0,18.48,18.481H446.5a6,6,0,0,0,0-12H428.23a6.488,6.488,0,0,1-6.48-6.481V329.9a18.5,18.5,0,0,0-18.481-18.48h-4.144c-3.138-65.263-57.216-117.388-123.212-117.388-3.827-.02-33.044-.168-44.077-.068A77.175,77.175,0,0,0,165.9,156.09a6,6,0,0,0-5.659,7.993l1.374,3.9a61.417,61.417,0,0,1-.374,41.919c-24.8,10.79-45.24,26.364-59.419,45.255H75.5a16.019,16.019,0,0,0-16,16v73.49A16.019,16.019,0,0,0,75.5,360.65Zm-4-89.49a4,4,0,0,1,4-4h29.37a6,6,0,0,0,4.892-2.526c13.349-18.8,33.563-34.244,58.454-44.659a6,6,0,0,0,3.221-3.224,73.39,73.39,0,0,0,2.963-48.105,63.568,63.568,0,0,1,36.757,18.187,62.236,62.236,0,0,1,11.8,15.912,6,6,0,0,0,5.708,3.274c2.689-.16,29.691-.081,47.215.011A111.512,111.512,0,0,1,387.266,316.571c-.236,26.874-13.647,52.665-37.825,72.7a6,6,0,0,0-2.172,4.62v50.08a4,4,0,0,1-4,4h-40a4,4,0,0,1-4-4v-9.49a26.03,26.03,0,0,0-26-26H215.5a26.03,26.03,0,0,0-26,26v9.49a4,4,0,0,1-4,4h-40a4,4,0,0,1-4-4v-43.4a6,6,0,0,0-2.543-4.9c-17.106-12.059-30.239-27.125-37.978-43.571a6,6,0,0,0-5.429-3.445H75.5a4,4,0,0,1-4-4Z" data-original="#000000" class="active-path" fill="#FFFFFF"/><path d="M148.892,307.654a23.026,23.026,0,0,0,23-23,6,6,0,0,0-12,0,11,11,0,0,1-22,0,6,6,0,0,0-12,0A23.026,23.026,0,0,0,148.892,307.654Z" data-original="#000000" class="active-path" fill="#FFFFFF"/><path d="M246,244.785h53.346a6,6,0,0,0,0-12H246a6,6,0,0,0,0,12Z" data-original="#000000" class="active-path" fill="#FFFFFF"/><path d="M276,184.03a66,66,0,1,0-66-66A66.075,66.075,0,0,0,276,184.03Zm0-120a54,54,0,1,1-54,54A54.061,54.061,0,0,1,276,64.03Z" data-original="#000000" class="active-path" fill="#FFFFFF"/><path d="M267.918,115.4l-10.671-.114h-.065a6,6,0,0,0-4.167,10.316l26.4,25.49a6,6,0,1,0,8.335-8.633l-15.932-15.382a21.992,21.992,0,0,0,17.3-15.451l5.462.059h.066a6,6,0,0,0,.063-12l-5.46-.059a21.879,21.879,0,0,0-1.533-4.018l7.035.075h.066a6,6,0,0,0,.063-12L268.261,83.4l-10.671-.115h-.066a6,6,0,0,0-.063,12l10.671.115a9.983,9.983,0,0,1,7.94,4.087l-18.654-.2a6,6,0,1,0-.129,12l18.661.2a10.221,10.221,0,0,1-.929,1.062A9.8,9.8,0,0,1,267.918,115.4Z" data-original="#000000" class="active-path" fill="#FFFFFF"/></g> </svg>
