<?xml version="1.0" encoding="UTF-8"?>
<!DOCTYPE svg PUBLIC "-//W3C//DTD SVG 1.1//EN" "http://www.w3.org/Graphics/SVG/1.1/DTD/svg11.dtd">
<!-- Creator: CorelDRAW X5 -->
<svg xmlns="http://www.w3.org/2000/svg" xml:space="preserve" width="17.7802mm" height="17.7802mm" style="shape-rendering:geometricPrecision; text-rendering:geometricPrecision; image-rendering:optimizeQuality; fill-rule:evenodd; clip-rule:evenodd"
viewBox="0 0 0.925501 0.925501"
 xmlns:xlink="http://www.w3.org/1999/xlink">
 <defs>
  <style type="text/css">
   <![CDATA[
    .str1 {stroke:#FEFEFE;stroke-width:0.00881246}
    .str0 {stroke:#FEFEFE;stroke-width:0.0440727}
    .fil0 {fill:none}
    .fil1 {fill:#FEFEFE}
   ]]>
  </style>
 </defs>
 <g id="Layer_x0020_1">
  <metadata id="CorelCorpID_0Corel-Layer"/>
  <circle class="fil0 str0" cx="0.462751" cy="0.462751" r="0.440712"/>
  <path class="fil1 str1" d="M0.626174 0.335837l-0.0784689 0c-0.0044765,-0.0432503 -0.0278012,-0.0834139 -0.0619371,-0.108128l0.140406 0c0.00849494,0 0.0154491,-0.00694899 0.0154491,-0.0154491 0,-0.00849494 -0.00695419,-0.0154439 -0.0154491,-0.0154439l-0.326847 0c-0.00849494,0 -0.0154491,0.00694899 -0.0154491,0.0154439 0,0.00850015 0.00695419,0.0154491 0.0154491,0.0154491l0.0936058 0c0.0636392,0 0.116155,0.047883 0.123728,0.108123l-0.217334 5.20524e-006c-0.00849494,0 -0.0154491,0.00694899 -0.0154491,0.0154439 0,0.00849494 0.00695419,0.0154491 0.0154491,0.0154491l0.217334 0c-0.00772457,0.0625565 -0.0608596,0.109513 -0.123728,0.109669l-0.0934548 0c-0.0086459,0.000150952 -0.0156001,0.0072613 -0.0154439,0.0159072 0,0.0041746 0.00185306,0.00818784 0.00478882,0.0111236l0.233705 0.22104c0.00617861,0.00587151 0.0159124,0.00555919 0.0217787,-0.000619423 0.00587151,-0.00632957 0.0055644,-0.0160634 -0.000614218,-0.0220858l-0.205596 -0.194473 0.054681 0c0.0806343,0 0.147209,-0.0617861 0.154929,-0.140562l0.0784689 0c0.00849494,0 0.0154491,-0.00695419 0.0154491,-0.0154491 0,-0.00849494 -0.00695419,-0.0154439 -0.0154491,-0.0154439z"/>
 </g>
</svg>
