<?xml version="1.0" encoding="UTF-8"?>
<!DOCTYPE svg PUBLIC "-//W3C//DTD SVG 1.1//EN" "http://www.w3.org/Graphics/SVG/1.1/DTD/svg11.dtd">
<!-- Creator: CorelDRAW X5 -->
<svg xmlns="http://www.w3.org/2000/svg" xml:space="preserve" width="17.7802mm" height="17.7802mm" style="shape-rendering:geometricPrecision; text-rendering:geometricPrecision; image-rendering:optimizeQuality; fill-rule:evenodd; clip-rule:evenodd"
viewBox="0 0 0.805138 0.805138"
 xmlns:xlink="http://www.w3.org/1999/xlink">
 <defs>
  <style type="text/css">
   <![CDATA[
    .str1 {stroke:#963935;stroke-width:0.00766639}
    .str0 {stroke:#963935;stroke-width:0.038341}
    .fil0 {fill:none}
    .fil1 {fill:#963935}
   ]]>
  </style>
 </defs>
 <g id="Layer_x0020_1">
  <metadata id="CorelCorpID_0Corel-Layer"/>
  <circle class="fil0 str0" cx="0.402569" cy="0.402569" r="0.383396"/>
  <path class="fil1 str1" d="M0.544739 0.29216l-0.0682639 0c-0.00389432,-0.0376255 -0.0241856,-0.0725658 -0.0538821,-0.0940661l0.122146 0c0.00739016,0 0.0134399,-0.00604526 0.0134399,-0.0134399 0,-0.00739016 -0.00604979,-0.0134354 -0.0134399,-0.0134354l-0.28434 0c-0.00739016,0 -0.0134399,0.00604526 -0.0134399,0.0134354 0,0.00739469 0.00604979,0.0134399 0.0134399,0.0134399l0.0814321 0c0.0553628,0 0.101049,0.0416557 0.107637,0.0940615l-0.189069 4.52828e-006c-0.00739016,0 -0.0134399,0.00604526 -0.0134399,0.0134354 0,0.00739016 0.00604979,0.0134399 0.0134399,0.0134399l0.189069 0c-0.00671997,0.0544209 -0.0529447,0.0952706 -0.107637,0.0954064l-0.0813008 0c-0.00752148,0.00013132 -0.0135713,0.00631696 -0.0134354,0.0138384 0,0.00363168 0.00161207,0.00712299 0.00416602,0.00967694l0.203311 0.192294c0.00537507,0.0051079 0.013843,0.00483621 0.0189463,-0.000538866 0.0051079,-0.00550639 0.00484074,-0.0139743 -0.000534338,-0.0192135l-0.178858 -0.169181 0.0475696 0c0.0701477,0 0.128064,-0.0537507 0.13478,-0.122282l0.0682639 0c0.00739016,0 0.0134399,-0.00604979 0.0134399,-0.0134399 0,-0.00739016 -0.00604979,-0.0134354 -0.0134399,-0.0134354z"/>
 </g>
</svg>
